<svg xmlns="http://www.w3.org/2000/svg" viewBox="0 0 585.17 554.7"><defs><style>.cls-1{opacity:0.4;}.cls-2{fill:#fff;}.cls-3{fill:#fce8f0;}.cls-4{fill:#fad1e1;}.cls-5{fill:#f7b9d2;}.cls-6{fill:#f5a2c3;}.cls-7{fill:#f28bb4;}.cls-8{fill:#f074a5;}.cls-9{fill:#ed5d96;}.cls-10{fill:#eb4687;}.cls-11{fill:#e82e78;}.cls-12{fill:#e61769;}.cls-13{fill:#e3005a;}</style></defs><title>Fichier 3</title><g id="Calque_2" data-name="Calque 2"><g id="Calque_1-2" data-name="Calque 1"><g class="cls-1"><path class="cls-2" d="M69.18,235,24.7,428.91C6.82,506.83,80.91,574.39,156.86,549.42L511.56,432.8c89.61-29.47,100.05-152,16.72-196.23L314.12,123C215.51,70.69,94.14,126.19,69.18,235Z"/><path class="cls-3" d="M23.39,416.33c-14.91,75,53.85,140.77,124.24,122.24,3.33,10.32,338.54-93,345.59-101.11C574.69,410.67,606.1,274,530.34,233.82c6.53-7.52-193.65-122.69-203.33-122C237.37,64.3,102.27,116.57,79.59,215.47,67.91,216.33,19.67,404.79,23.39,416.33Z"/><path class="cls-4" d="M22.07,403.75c-11.94,72.09,51.49,136.06,116.32,124,6.67,20.64,322.4-69.36,336.5-85.6,73.32-24.11,125.7-174.88,57.52-211,13.06-15-173.16-131.82-192.5-130.39C259.23,57.9,110.41,107,90,196,66.65,197.68,14.64,380.67,22.07,403.75Z"/><path class="cls-5" d="M20.76,391.17c-9,69.17,49.12,131.35,108.4,125.7,10,31,306.24-45.74,327.39-70.09,65.18-21.43,138.54-186.3,77.93-218.44C554.07,205.78,381.82,87.4,352.8,89.54c-71.71-38-234.26,7.79-252.41,86.91C65.38,179,9.61,356.55,20.76,391.17Z"/><path class="cls-6" d="M19.45,378.59c-6,66.25,46.76,126.64,100.47,127.43,13.33,41.28,290.1-22.11,318.3-54.58,57-18.75,151.36-197.72,98.32-225.85,26.13-30.08-132.16-150-170.85-147.2-62.75-33.28-239,9.32-254.9,78.55C64.11,160.38,4.59,332.43,19.45,378.59Z"/><path class="cls-7" d="M18.14,366c-3,63.33,44.39,121.93,92.55,129.16,16.66,51.6,273.94,1.52,309.19-39.07C468.76,440,584.07,247,538.61,222.85c32.66-37.6-111.66-159.17-160-155.61-53.79-28.53-243.78,10.85-257.4,70.19C62.84,141.73-.44,308.31,18.14,366Z"/><path class="cls-8" d="M16.83,353.43c9.34,59.69,42,117.22,84.62,130.89,20,61.92,257.79,25.15,300.1-23.56,40.73-13.4,177-220.56,139.13-240.65,39.19-45.12-91.17-168.3-149.2-164C346.66,32.32,142.94,68.47,131.6,117.92,61.57,123.08,5.59,281.56,16.83,353.43Z"/><path class="cls-9" d="M15.52,340.84c10.36,56.64,39.66,112.52,76.7,132.62,23.33,72.25,241.64,48.79,291-8,32.59-10.72,189.84-232,159.53-248C588.46,164.72,472.08,40,404.37,44.94c-35.85-19-253.3,13.92-262.37,53.48C60.3,104.43.25,257.37,15.52,340.84Z"/><path class="cls-10" d="M14.21,328.26C25.62,382,51.5,436.07,83,462.61c26.66,82.57,225.49,72.42,281.9,7.47,24.44-8,202.66-243.4,179.93-255.46,52.25-60.16-50.17-186.53-127.54-180.83C390.37,19.52,159.21,49.24,152.4,78.91,59,85.78-5.94,233.4,14.21,328.26Z"/><path class="cls-11" d="M12.9,315.68c12.48,50.92,34.93,103.1,60.85,136.08,30,92.89,209.34,96,272.8,23C362.84,469.38,562,219.92,546.88,211.88,605.66,144.2,517.21,16.23,430.16,22.64c-17.93-9.51-262.82,17-267.36,36.76C57.76,67.13-13.08,209.72,12.9,315.68Z"/><path class="cls-12" d="M11.59,303.1c13.6,48.29,35.87,96.84,52.93,137.81C106.21,541,257.7,560.58,328.21,479.39c8.15-2.67,228.31-266.23,220.74-270.25,65.31-75.21-9.17-204.77-105.9-197.65-9-4.76-267.58,18.51-269.84,28.4C56.49,48.48-21.27,186.41,11.59,303.1Z"/><path class="cls-13" d="M10.28,290.52c14.76,45.84,30.19,93.67,45,139.54,36.66,113.54,177,143.3,254.6,54L551,206.4C622.86,123.67,562.34-7.5,455.94.34l-272.33,20C55.22,29.83-30.6,163.59,10.28,290.52Z"/></g></g></g></svg>